<mxfile host="app.diagrams.net" modified="2022-03-27T08:53:13.490Z" agent="5.0 (Windows NT 10.0; Win64; x64) AppleWebKit/537.36 (KHTML, like Gecko) Chrome/98.0.4758.102 Safari/537.36" etag="lPa-4mC2SfZ-G3cFFqkt" version="17.2.4" type="github">
  <diagram id="-KGA0PzMNng8vC2zVvCZ" name="第 1 页">
    <mxGraphModel dx="3773" dy="3081" grid="1" gridSize="10" guides="1" tooltips="1" connect="1" arrows="1" fold="1" page="1" pageScale="1" pageWidth="583" pageHeight="827" math="0" shadow="0">
      <root>
        <mxCell id="0" />
        <mxCell id="1" parent="0" />
        <mxCell id="G4KNq09FpL6BN4P5IqwS-1" value="" style="rounded=0;whiteSpace=wrap;html=1;" vertex="1" parent="1">
          <mxGeometry x="-1003" y="-1094" width="152" height="252" as="geometry" />
        </mxCell>
        <mxCell id="G4KNq09FpL6BN4P5IqwS-2" value="Person 类" style="text;html=1;align=center;verticalAlign=middle;resizable=0;points=[];autosize=1;strokeColor=none;fillColor=none;fontStyle=1" vertex="1" parent="1">
          <mxGeometry x="-984" y="-1120" width="66" height="18" as="geometry" />
        </mxCell>
        <mxCell id="G4KNq09FpL6BN4P5IqwS-3" value="this.a = 1&lt;br&gt;this.b = 2&lt;br&gt;this.getA = fun" style="text;html=1;resizable=0;autosize=1;align=center;verticalAlign=middle;points=[];fillColor=none;strokeColor=none;rounded=0;" vertex="1" parent="1">
          <mxGeometry x="-990" y="-1083" width="87" height="46" as="geometry" />
        </mxCell>
        <mxCell id="G4KNq09FpL6BN4P5IqwS-4" value="name:&#39;Fn&#39;&lt;br&gt;length:0" style="text;html=1;resizable=0;autosize=1;align=center;verticalAlign=middle;points=[];fillColor=none;strokeColor=none;rounded=0;" vertex="1" parent="1">
          <mxGeometry x="-972" y="-1000" width="62" height="32" as="geometry" />
        </mxCell>
        <mxCell id="G4KNq09FpL6BN4P5IqwS-5" value="" style="rounded=0;whiteSpace=wrap;html=1;" vertex="1" parent="1">
          <mxGeometry x="-1004" y="-797" width="162" height="252" as="geometry" />
        </mxCell>
        <mxCell id="G4KNq09FpL6BN4P5IqwS-6" value="p1 实例" style="text;html=1;resizable=0;autosize=1;align=center;verticalAlign=middle;points=[];fillColor=none;strokeColor=none;rounded=0;fontStyle=1" vertex="1" parent="1">
          <mxGeometry x="-954" y="-815" width="51" height="18" as="geometry" />
        </mxCell>
        <mxCell id="G4KNq09FpL6BN4P5IqwS-7" value="a = 1&lt;br&gt;b = 2&lt;br&gt;getA = fn(aaff00)&lt;br&gt;&lt;br&gt;私有属性" style="text;html=1;resizable=0;autosize=1;align=center;verticalAlign=middle;points=[];fillColor=none;strokeColor=none;rounded=0;" vertex="1" parent="1">
          <mxGeometry x="-982" y="-761" width="99" height="74" as="geometry" />
        </mxCell>
        <mxCell id="G4KNq09FpL6BN4P5IqwS-8" value="" style="rounded=0;whiteSpace=wrap;html=1;" vertex="1" parent="1">
          <mxGeometry x="-754" y="-1094" width="152" height="252" as="geometry" />
        </mxCell>
        <mxCell id="G4KNq09FpL6BN4P5IqwS-9" value="Person.protoytpe原型对象" style="text;html=1;align=center;verticalAlign=middle;resizable=0;points=[];autosize=1;strokeColor=none;fillColor=none;fontStyle=1" vertex="1" parent="1">
          <mxGeometry x="-764" y="-1123" width="157" height="18" as="geometry" />
        </mxCell>
        <mxCell id="G4KNq09FpL6BN4P5IqwS-10" value="construtor" style="text;html=1;resizable=0;autosize=1;align=center;verticalAlign=middle;points=[];fillColor=none;strokeColor=none;rounded=0;fontColor=#FF0000;" vertex="1" parent="1">
          <mxGeometry x="-717" y="-1064" width="63" height="18" as="geometry" />
        </mxCell>
        <mxCell id="G4KNq09FpL6BN4P5IqwS-11" value="getA:fun(aaff03)&lt;br&gt;getB:fun(aaff02)&lt;br&gt;&lt;br&gt;公有属性" style="text;html=1;resizable=0;autosize=1;align=center;verticalAlign=middle;points=[];fillColor=none;strokeColor=none;rounded=0;" vertex="1" parent="1">
          <mxGeometry x="-732" y="-1014" width="96" height="60" as="geometry" />
        </mxCell>
        <mxCell id="G4KNq09FpL6BN4P5IqwS-12" value="类：proototype---&amp;gt;原型对象&lt;br style=&quot;font-size: 14px&quot;&gt;原型：constructor-----&amp;gt;类&lt;br style=&quot;font-size: 14px&quot;&gt;所有对象：__proto__属性&amp;nbsp; 属性值 当前实例的所属的类的原型&lt;br&gt;原型链：先查找自己的私有属性--&amp;gt;__proto__----&amp;gt;公有属性" style="text;html=1;resizable=0;autosize=1;align=left;verticalAlign=middle;points=[];fillColor=none;strokeColor=none;rounded=0;fontStyle=1;fontSize=14;" vertex="1" parent="1">
          <mxGeometry x="-1037" y="-466" width="397" height="72" as="geometry" />
        </mxCell>
        <mxCell id="G4KNq09FpL6BN4P5IqwS-13" value="prototype" style="text;html=1;resizable=0;autosize=1;align=center;verticalAlign=middle;points=[];fillColor=none;strokeColor=none;rounded=0;fontColor=#00CC00;" vertex="1" parent="1">
          <mxGeometry x="-965" y="-931" width="60" height="18" as="geometry" />
        </mxCell>
        <mxCell id="G4KNq09FpL6BN4P5IqwS-14" value="&lt;font color=&quot;#330000&quot;&gt;Fn.prototype&lt;/font&gt;" style="endArrow=classic;html=1;rounded=0;fontColor=#00CC00;exitX=0.983;exitY=0.778;exitDx=0;exitDy=0;exitPerimeter=0;entryX=0;entryY=0.522;entryDx=0;entryDy=0;entryPerimeter=0;" edge="1" parent="1" source="G4KNq09FpL6BN4P5IqwS-13" target="G4KNq09FpL6BN4P5IqwS-8">
          <mxGeometry width="50" height="50" relative="1" as="geometry">
            <mxPoint x="-821" y="-838" as="sourcePoint" />
            <mxPoint x="-771" y="-888" as="targetPoint" />
          </mxGeometry>
        </mxCell>
        <mxCell id="G4KNq09FpL6BN4P5IqwS-15" value="" style="endArrow=classic;html=1;rounded=0;fontColor=#FF0000;exitX=0.005;exitY=0.648;exitDx=0;exitDy=0;exitPerimeter=0;" edge="1" parent="1" source="G4KNq09FpL6BN4P5IqwS-10" target="G4KNq09FpL6BN4P5IqwS-1">
          <mxGeometry width="50" height="50" relative="1" as="geometry">
            <mxPoint x="-730" y="-1037" as="sourcePoint" />
            <mxPoint x="-680" y="-1087" as="targetPoint" />
          </mxGeometry>
        </mxCell>
        <mxCell id="G4KNq09FpL6BN4P5IqwS-16" value="&lt;font color=&quot;#0066cc&quot;&gt;__proto__&lt;/font&gt;" style="text;html=1;resizable=0;autosize=1;align=center;verticalAlign=middle;points=[];fillColor=none;strokeColor=none;rounded=0;fontColor=#FF0000;" vertex="1" parent="1">
          <mxGeometry x="-968" y="-624" width="64" height="18" as="geometry" />
        </mxCell>
        <mxCell id="G4KNq09FpL6BN4P5IqwS-17" value="" style="endArrow=classic;html=1;rounded=0;fontColor=#0066CC;exitX=1.021;exitY=0.833;exitDx=0;exitDy=0;exitPerimeter=0;entryX=0.434;entryY=1.004;entryDx=0;entryDy=0;entryPerimeter=0;" edge="1" parent="1" source="G4KNq09FpL6BN4P5IqwS-16" target="G4KNq09FpL6BN4P5IqwS-8">
          <mxGeometry width="50" height="50" relative="1" as="geometry">
            <mxPoint x="-889" y="-584" as="sourcePoint" />
            <mxPoint x="-839" y="-634" as="targetPoint" />
          </mxGeometry>
        </mxCell>
        <mxCell id="G4KNq09FpL6BN4P5IqwS-18" value="&lt;font color=&quot;#0066cc&quot;&gt;__proto__&lt;/font&gt;" style="text;html=1;resizable=0;autosize=1;align=center;verticalAlign=middle;points=[];fillColor=none;strokeColor=none;rounded=0;fontColor=#FF0000;" vertex="1" parent="1">
          <mxGeometry x="-963" y="-883" width="64" height="18" as="geometry" />
        </mxCell>
        <mxCell id="G4KNq09FpL6BN4P5IqwS-19" value="&lt;font color=&quot;#0066cc&quot;&gt;__proto__&lt;/font&gt;" style="text;html=1;resizable=0;autosize=1;align=center;verticalAlign=middle;points=[];fillColor=none;strokeColor=none;rounded=0;fontColor=#FF0000;" vertex="1" parent="1">
          <mxGeometry x="-710" y="-890" width="64" height="18" as="geometry" />
        </mxCell>
        <mxCell id="G4KNq09FpL6BN4P5IqwS-20" value="" style="rounded=0;whiteSpace=wrap;html=1;fontSize=14;fontColor=#0066CC;" vertex="1" parent="1">
          <mxGeometry x="-502" y="-1223" width="131" height="247" as="geometry" />
        </mxCell>
        <mxCell id="G4KNq09FpL6BN4P5IqwS-21" value="" style="rounded=0;whiteSpace=wrap;html=1;fontSize=14;fontColor=#0066CC;" vertex="1" parent="1">
          <mxGeometry x="-451" y="-1558" width="131" height="247" as="geometry" />
        </mxCell>
        <mxCell id="G4KNq09FpL6BN4P5IqwS-22" value="Object 类" style="text;html=1;resizable=0;autosize=1;align=center;verticalAlign=middle;points=[];fillColor=none;strokeColor=none;rounded=0;fontSize=14;fontColor=#0066CC;" vertex="1" parent="1">
          <mxGeometry x="-437" y="-1588" width="69" height="21" as="geometry" />
        </mxCell>
        <mxCell id="G4KNq09FpL6BN4P5IqwS-23" value="Object.protoytpe原型对象" style="text;html=1;align=center;verticalAlign=middle;resizable=0;points=[];autosize=1;strokeColor=none;fillColor=none;fontStyle=1" vertex="1" parent="1">
          <mxGeometry x="-515" y="-1255" width="154" height="18" as="geometry" />
        </mxCell>
        <mxCell id="G4KNq09FpL6BN4P5IqwS-24" value="construtor" style="text;html=1;resizable=0;autosize=1;align=center;verticalAlign=middle;points=[];fillColor=none;strokeColor=none;rounded=0;fontColor=#FF0000;" vertex="1" parent="1">
          <mxGeometry x="-471" y="-1191" width="63" height="18" as="geometry" />
        </mxCell>
        <mxCell id="G4KNq09FpL6BN4P5IqwS-25" value="key-value&lt;br&gt;toString&lt;br&gt;hasOwnProperty&lt;br&gt;&lt;br&gt;公有属性" style="text;html=1;resizable=0;autosize=1;align=center;verticalAlign=middle;points=[];fillColor=none;strokeColor=none;rounded=0;" vertex="1" parent="1">
          <mxGeometry x="-492" y="-1138" width="99" height="74" as="geometry" />
        </mxCell>
        <mxCell id="G4KNq09FpL6BN4P5IqwS-26" value="" style="endArrow=classic;html=1;rounded=0;fontSize=14;fontColor=#0066CC;exitX=1;exitY=0.13;exitDx=0;exitDy=0;exitPerimeter=0;entryX=0.008;entryY=0.942;entryDx=0;entryDy=0;entryPerimeter=0;" edge="1" parent="1" source="G4KNq09FpL6BN4P5IqwS-19" target="G4KNq09FpL6BN4P5IqwS-20">
          <mxGeometry width="50" height="50" relative="1" as="geometry">
            <mxPoint x="-640" y="-865" as="sourcePoint" />
            <mxPoint x="-504" y="-1056" as="targetPoint" />
          </mxGeometry>
        </mxCell>
        <mxCell id="G4KNq09FpL6BN4P5IqwS-27" value="key-value&lt;br&gt;&lt;br&gt;&lt;br&gt;length :1&lt;br&gt;name:Object" style="text;html=1;resizable=0;autosize=1;align=center;verticalAlign=middle;points=[];fillColor=none;strokeColor=none;rounded=0;" vertex="1" parent="1">
          <mxGeometry x="-426" y="-1488" width="78" height="74" as="geometry" />
        </mxCell>
        <mxCell id="G4KNq09FpL6BN4P5IqwS-28" value="prototype" style="text;html=1;resizable=0;autosize=1;align=center;verticalAlign=middle;points=[];fillColor=none;strokeColor=none;rounded=0;fontColor=#00CC00;" vertex="1" parent="1">
          <mxGeometry x="-418" y="-1374" width="60" height="18" as="geometry" />
        </mxCell>
        <mxCell id="G4KNq09FpL6BN4P5IqwS-29" value="" style="endArrow=classic;html=1;rounded=0;fontSize=14;fontColor=#0066CC;exitX=-0.039;exitY=1.037;exitDx=0;exitDy=0;exitPerimeter=0;" edge="1" parent="1" source="G4KNq09FpL6BN4P5IqwS-28">
          <mxGeometry width="50" height="50" relative="1" as="geometry">
            <mxPoint x="-277" y="-1009" as="sourcePoint" />
            <mxPoint x="-481" y="-1224" as="targetPoint" />
          </mxGeometry>
        </mxCell>
        <mxCell id="G4KNq09FpL6BN4P5IqwS-30" value="" style="endArrow=classic;html=1;rounded=0;fontSize=14;fontColor=#0066CC;entryX=0.71;entryY=1.004;entryDx=0;entryDy=0;entryPerimeter=0;" edge="1" parent="1" source="G4KNq09FpL6BN4P5IqwS-24" target="G4KNq09FpL6BN4P5IqwS-21">
          <mxGeometry width="50" height="50" relative="1" as="geometry">
            <mxPoint x="-401" y="-1153" as="sourcePoint" />
            <mxPoint x="-351" y="-1203" as="targetPoint" />
          </mxGeometry>
        </mxCell>
        <mxCell id="G4KNq09FpL6BN4P5IqwS-31" value="&lt;font color=&quot;#0066cc&quot;&gt;__proto__&lt;/font&gt;" style="text;html=1;resizable=0;autosize=1;align=center;verticalAlign=middle;points=[];fillColor=none;strokeColor=none;rounded=0;fontColor=#FF0000;" vertex="1" parent="1">
          <mxGeometry x="-472" y="-1023" width="64" height="18" as="geometry" />
        </mxCell>
        <mxCell id="G4KNq09FpL6BN4P5IqwS-32" value="&lt;font color=&quot;#0066cc&quot;&gt;__proto__&lt;/font&gt;" style="text;html=1;resizable=0;autosize=1;align=center;verticalAlign=middle;points=[];fillColor=none;strokeColor=none;rounded=0;fontColor=#FF0000;" vertex="1" parent="1">
          <mxGeometry x="-419" y="-1346" width="64" height="18" as="geometry" />
        </mxCell>
        <mxCell id="G4KNq09FpL6BN4P5IqwS-33" value="null" style="rounded=0;whiteSpace=wrap;html=1;fontSize=14;fontColor=#330000;" vertex="1" parent="1">
          <mxGeometry x="-255" y="-1191" width="120" height="60" as="geometry" />
        </mxCell>
        <mxCell id="G4KNq09FpL6BN4P5IqwS-34" value="" style="endArrow=classic;html=1;rounded=0;fontSize=14;fontColor=#330000;exitX=1.078;exitY=1.185;exitDx=0;exitDy=0;exitPerimeter=0;" edge="1" parent="1" source="G4KNq09FpL6BN4P5IqwS-31" target="G4KNq09FpL6BN4P5IqwS-33">
          <mxGeometry width="50" height="50" relative="1" as="geometry">
            <mxPoint x="-321" y="-1017" as="sourcePoint" />
            <mxPoint x="-271" y="-1067" as="targetPoint" />
          </mxGeometry>
        </mxCell>
        <mxCell id="G4KNq09FpL6BN4P5IqwS-35" value="" style="whiteSpace=wrap;html=1;aspect=fixed;fontSize=14;fontColor=#330000;" vertex="1" parent="1">
          <mxGeometry x="-1020" y="-1391" width="165" height="165" as="geometry" />
        </mxCell>
        <mxCell id="G4KNq09FpL6BN4P5IqwS-36" value="Function :类" style="text;html=1;resizable=0;autosize=1;align=center;verticalAlign=middle;points=[];fillColor=none;strokeColor=none;rounded=0;fontSize=14;fontColor=#330000;" vertex="1" parent="1">
          <mxGeometry x="-1005" y="-1422" width="85" height="21" as="geometry" />
        </mxCell>
        <mxCell id="G4KNq09FpL6BN4P5IqwS-37" value="&lt;font color=&quot;#0066cc&quot;&gt;__proto__&lt;/font&gt;" style="text;html=1;resizable=0;autosize=1;align=center;verticalAlign=middle;points=[];fillColor=none;strokeColor=none;rounded=0;fontColor=#FF0000;" vertex="1" parent="1">
          <mxGeometry x="-977" y="-1263" width="64" height="18" as="geometry" />
        </mxCell>
        <mxCell id="G4KNq09FpL6BN4P5IqwS-38" value="&lt;span&gt;key - value&lt;/span&gt;&lt;br&gt;&lt;span&gt;length:0&lt;/span&gt;&lt;br&gt;&lt;span&gt;name:Function&lt;/span&gt;" style="text;html=1;resizable=0;autosize=1;align=center;verticalAlign=middle;points=[];fillColor=none;strokeColor=none;rounded=0;fontSize=14;fontColor=#330000;" vertex="1" parent="1">
          <mxGeometry x="-1002" y="-1361" width="103" height="55" as="geometry" />
        </mxCell>
        <mxCell id="G4KNq09FpL6BN4P5IqwS-39" value="prototype" style="text;html=1;resizable=0;autosize=1;align=center;verticalAlign=middle;points=[];fillColor=none;strokeColor=none;rounded=0;fontColor=#00CC00;" vertex="1" parent="1">
          <mxGeometry x="-972" y="-1296" width="60" height="18" as="geometry" />
        </mxCell>
        <mxCell id="G4KNq09FpL6BN4P5IqwS-40" value="key value" style="rounded=0;whiteSpace=wrap;html=1;fontSize=14;fontColor=#330000;" vertex="1" parent="1">
          <mxGeometry x="-761" y="-1409" width="165" height="167" as="geometry" />
        </mxCell>
        <mxCell id="G4KNq09FpL6BN4P5IqwS-41" value="Function.prototype 原型对象" style="text;html=1;resizable=0;autosize=1;align=center;verticalAlign=middle;points=[];fillColor=none;strokeColor=none;rounded=0;fontSize=14;fontColor=#330000;" vertex="1" parent="1">
          <mxGeometry x="-767" y="-1447" width="186" height="21" as="geometry" />
        </mxCell>
        <mxCell id="G4KNq09FpL6BN4P5IqwS-42" value="construtor" style="text;html=1;resizable=0;autosize=1;align=center;verticalAlign=middle;points=[];fillColor=none;strokeColor=none;rounded=0;fontColor=#FF0000;" vertex="1" parent="1">
          <mxGeometry x="-720" y="-1386" width="63" height="18" as="geometry" />
        </mxCell>
        <mxCell id="G4KNq09FpL6BN4P5IqwS-43" value="" style="endArrow=classic;html=1;rounded=0;fontSize=14;fontColor=#330000;" edge="1" parent="1" source="G4KNq09FpL6BN4P5IqwS-42" target="G4KNq09FpL6BN4P5IqwS-35">
          <mxGeometry width="50" height="50" relative="1" as="geometry">
            <mxPoint x="-719" y="-1360" as="sourcePoint" />
            <mxPoint x="-669" y="-1410" as="targetPoint" />
          </mxGeometry>
        </mxCell>
        <mxCell id="G4KNq09FpL6BN4P5IqwS-44" value="" style="endArrow=classic;html=1;rounded=0;fontSize=14;fontColor=#330000;" edge="1" parent="1" source="G4KNq09FpL6BN4P5IqwS-39" target="G4KNq09FpL6BN4P5IqwS-40">
          <mxGeometry width="50" height="50" relative="1" as="geometry">
            <mxPoint x="-843" y="-1266" as="sourcePoint" />
            <mxPoint x="-793" y="-1316" as="targetPoint" />
          </mxGeometry>
        </mxCell>
        <mxCell id="G4KNq09FpL6BN4P5IqwS-45" value="" style="endArrow=classic;html=1;rounded=0;fontSize=14;fontColor=#330000;entryX=0.176;entryY=1.006;entryDx=0;entryDy=0;entryPerimeter=0;" edge="1" parent="1" source="G4KNq09FpL6BN4P5IqwS-18" target="G4KNq09FpL6BN4P5IqwS-40">
          <mxGeometry width="50" height="50" relative="1" as="geometry">
            <mxPoint x="-825" y="-861" as="sourcePoint" />
            <mxPoint x="-775" y="-911" as="targetPoint" />
          </mxGeometry>
        </mxCell>
        <mxCell id="G4KNq09FpL6BN4P5IqwS-46" value="" style="endArrow=classic;html=1;rounded=0;fontSize=14;fontColor=#330000;exitX=1;exitY=1.019;exitDx=0;exitDy=0;exitPerimeter=0;entryX=-0.018;entryY=0.395;entryDx=0;entryDy=0;entryPerimeter=0;" edge="1" parent="1" source="G4KNq09FpL6BN4P5IqwS-37" target="G4KNq09FpL6BN4P5IqwS-20">
          <mxGeometry width="50" height="50" relative="1" as="geometry">
            <mxPoint x="-846" y="-1208" as="sourcePoint" />
            <mxPoint x="-796" y="-1258" as="targetPoint" />
          </mxGeometry>
        </mxCell>
        <mxCell id="G4KNq09FpL6BN4P5IqwS-47" value="&lt;font color=&quot;#0066cc&quot;&gt;__proto__&lt;/font&gt;" style="text;html=1;resizable=0;autosize=1;align=center;verticalAlign=middle;points=[];fillColor=none;strokeColor=none;rounded=0;fontColor=#FF0000;" vertex="1" parent="1">
          <mxGeometry x="-706" y="-1284" width="64" height="18" as="geometry" />
        </mxCell>
        <mxCell id="G4KNq09FpL6BN4P5IqwS-48" value="" style="endArrow=classic;html=1;rounded=0;fontSize=14;fontColor=#330000;entryX=-0.018;entryY=0.225;entryDx=0;entryDy=0;entryPerimeter=0;exitX=1.089;exitY=0.407;exitDx=0;exitDy=0;exitPerimeter=0;" edge="1" parent="1" source="G4KNq09FpL6BN4P5IqwS-47" target="G4KNq09FpL6BN4P5IqwS-20">
          <mxGeometry width="50" height="50" relative="1" as="geometry">
            <mxPoint x="-539" y="-1358" as="sourcePoint" />
            <mxPoint x="-489" y="-1408" as="targetPoint" />
          </mxGeometry>
        </mxCell>
      </root>
    </mxGraphModel>
  </diagram>
</mxfile>
